<?xml version="1.0" encoding="UTF-8"?>
<svg width="20px" height="20px" viewBox="0 0 20 20" version="1.1" xmlns="http://www.w3.org/2000/svg" xmlns:xlink="http://www.w3.org/1999/xlink">
    <!-- Generator: Sketch 53.2 (72643) - https://sketchapp.com -->
    <title>Group 23</title>
    <desc>Created with Sketch.</desc>
    <g id="Symbols" stroke="none" stroke-width="1" fill="none" fill-rule="evenodd">
        <g id="Group-23" fill-rule="nonzero">
            <path d="M10,0 C15.5225192,0 20,4.47748082 20,10 C20,15.5218764 15.5225192,20 10,20 C4.47748082,20 0,15.5224478 0,10 C0,4.47755224 4.47683803,0 10,0 Z" id="Shape-Copy-3" fill="#E74C3C"></path>
            <path style=" stroke:none;fill-rule:nonzero;fill:white;fill-opacity:1;" d="M 19.941406 7.597656 C 19.984375 7.507812 20.003906 7.40625 20 7.300781 C 19.980469 6.988281 19.707031 6.746094 19.398438 6.753906 C 19.1875 6.761719 19 6.878906 18.90625 7.054688 C 18.890625 7.078125 18.8125 7.207031 18.648438 7.398438 L 12.617188 1.367188 C 12.75 1.257812 12.871094 1.167969 12.964844 1.113281 C 13.554688 0.703125 13.085938 -0.199219 12.417969 0.078125 C 9.574219 1.90625 9.085938 5.917969 9.484375 9.140625 C 5.484375 8.539062 1.828125 9.882812 0.0898438 12.339844 C -0.0820312 12.613281 0 12.976562 0.273438 13.148438 C 0.371094 13.210938 0.476562 13.242188 0.585938 13.242188 C 0.777344 13.242188 0.96875 13.144531 1.078125 12.96875 C 1.082031 12.964844 1.28125 12.660156 1.707031 12.257812 L 7.753906 18.304688 C 7.351562 18.726562 7.050781 18.925781 7.046875 18.925781 C 6.773438 19.101562 6.691406 19.460938 6.863281 19.734375 C 6.871094 19.746094 6.878906 19.757812 6.886719 19.765625 C 7.039062 19.976562 7.328125 20.03125 7.558594 19.910156 C 10.402344 18.390625 11.429688 13.671875 10.871094 10.527344 C 14.121094 10.9375 18.132812 10.417969 19.941406 7.597656 Z M 10.546875 7.65625 L 12.355469 9.46875 C 11.773438 9.449219 11.210938 9.394531 10.6875 9.324219 C 10.617188 8.800781 10.566406 8.238281 10.546875 7.65625 Z M 9.664062 10.351562 C 9.753906 10.921875 9.808594 11.480469 9.832031 12.019531 L 7.996094 10.183594 C 8.535156 10.203125 9.089844 10.261719 9.664062 10.351562 Z M 5.738281 10.324219 C 5.953125 10.289062 6.167969 10.257812 6.390625 10.234375 L 9.78125 13.625 C 9.734375 14.046875 9.644531 14.582031 9.515625 15.058594 L 4.953125 10.496094 C 5.210938 10.429688 5.472656 10.371094 5.738281 10.324219 Z M 2.628906 11.527344 C 2.917969 11.332031 3.328125 11.101562 3.726562 10.925781 L 9.085938 16.28125 C 8.933594 16.632812 8.734375 17.011719 8.488281 17.378906 Z M 13.972656 9.429688 L 10.582031 6.039062 C 10.625 5.550781 10.703125 5.058594 10.816406 4.578125 L 15.4375 9.195312 C 14.957031 9.3125 14.464844 9.386719 13.972656 9.429688 Z M 17.132812 8.574219 C 16.988281 8.652344 16.835938 8.722656 16.683594 8.785156 L 11.226562 3.332031 C 11.359375 3.019531 11.605469 2.554688 11.832031 2.242188 L 17.777344 8.183594 C 17.589844 8.3125 17.375 8.445312 17.132812 8.574219 Z M 17.132812 8.574219 "/>
        </g>
    </g>
</svg>